<svg xmlns="http://www.w3.org/2000/svg" viewBox="0 0 48 48"><defs><style>.cls-1{fill:#221e1b;}.cls-2{fill:#fff;}</style></defs><title>Behance</title><g id="Layer_2" data-name="Layer 2"><g id="Layer_1-2" data-name="Layer 1"><circle class="cls-1" cx="24" cy="24" r="24"/><path class="cls-2" d="M7.15,35.2a.83.83,0,0,1-.62-.26.85.85,0,0,1-.26-.62v-21a.89.89,0,0,1,.88-.88h8.7a8,8,0,0,1,3.44.64,6.39,6.39,0,0,1,2.18,1.56,5.59,5.59,0,0,1,1.15,2A6.33,6.33,0,0,1,23,18.58a5.18,5.18,0,0,1-1.07,3.24,4.54,4.54,0,0,1-.87.88l-.62.46a8.18,8.18,0,0,1,2.16,2.22,5.72,5.72,0,0,1,.92,3.23A6.63,6.63,0,0,1,23,31a6.4,6.4,0,0,1-3.6,3.62,8,8,0,0,1-3.11.57ZM9.36,15.4V22h6.17a5.29,5.29,0,0,0,3.26-.84,2.9,2.9,0,0,0,1.09-2.43,2.91,2.91,0,0,0-1.09-2.44,5.29,5.29,0,0,0-3.26-.84Zm0,9.48v7.4H16A5.79,5.79,0,0,0,17.9,32a4,4,0,0,0,1.39-.81A3.59,3.59,0,0,0,20.12,30a3.64,3.64,0,0,0,.28-1.4,4,4,0,0,0-.26-1.4,3.42,3.42,0,0,0-.8-1.2A3.94,3.94,0,0,0,18,25.19a5.54,5.54,0,0,0-2-.31Z"/><path class="cls-2" d="M26.79,25.14a8.69,8.69,0,0,1,.72-2.8A7.92,7.92,0,0,1,29,20.07a6.57,6.57,0,0,1,2.26-1.52A7.48,7.48,0,0,1,34.23,18a8.12,8.12,0,0,1,3.13.57,6.52,6.52,0,0,1,2.35,1.64,7.4,7.4,0,0,1,1.5,2.6,10.71,10.71,0,0,1,.52,3.41v.87a.85.85,0,0,1-.26.62.87.87,0,0,1-.62.26H29.68v.2a4.34,4.34,0,0,0,4.55,4.57,5.57,5.57,0,0,0,2.68-.5,5.62,5.62,0,0,0,1.44-1.12,2.08,2.08,0,0,1,.46-.36,1.43,1.43,0,0,1,.58-.09h1a.91.91,0,0,1,.65.26.61.61,0,0,1,.23.61,3.47,3.47,0,0,1-.55,1.29,4.78,4.78,0,0,1-1.32,1.29,7.75,7.75,0,0,1-2.14,1,10,10,0,0,1-3,.41A7.14,7.14,0,0,1,31.31,35a7,7,0,0,1-2.26-1.56,7.74,7.74,0,0,1-1.54-2.34,9.33,9.33,0,0,1-.72-2.94A13.5,13.5,0,0,1,26.79,25.14Zm2.89.09h9.13v-.09A4.18,4.18,0,0,0,37.56,22a4.66,4.66,0,0,0-3.33-1.18,5,5,0,0,0-1.76.3,4.41,4.41,0,0,0-1.42.88,4,4,0,0,0-1,1.38,4.74,4.74,0,0,0-.39,1.79Zm1-9.67a.89.89,0,0,1-.88-.88v-1A.83.83,0,0,1,30,13a.82.82,0,0,1,.62-.26h7.11a.81.81,0,0,1,.61.26.8.8,0,0,1,.26.61v1a.82.82,0,0,1-.26.62.85.85,0,0,1-.61.26Z"/></g></g></svg>