<svg xmlns="http://www.w3.org/2000/svg" viewBox="0 0 48 48"><defs><style>.cls-1{fill:#221e1b;}.cls-2{fill:#fff;}</style></defs><title>Contact</title><g id="Layer_2" data-name="Layer 2"><g id="Layer_1-2" data-name="Layer 1"><circle class="cls-1" cx="24" cy="24" r="24"/><path class="cls-2" d="M36.11,25.56a6,6,0,0,1-.47,2.16,4.46,4.46,0,0,1-1.06,1.48,4.29,4.29,0,0,1-1.5.86,5.92,5.92,0,0,1-1.78.28,5.56,5.56,0,0,1-2.46-.48,4.39,4.39,0,0,1-1.44-1q-.25.33-.54.66a2.79,2.79,0,0,1-.74.59A4.33,4.33,0,0,1,25,30.5a7.88,7.88,0,0,1-1.78.17,5,5,0,0,1-2.36-.53,4.66,4.66,0,0,1-1.67-1.45,6.58,6.58,0,0,1-1-2.14,9.9,9.9,0,0,1-.33-2.6,10.17,10.17,0,0,1,.33-2.62,6.49,6.49,0,0,1,1-2.14,4.94,4.94,0,0,1,1.67-1.44,4.81,4.81,0,0,1,2.36-.55,3.9,3.9,0,0,1,2.14.49,5.21,5.21,0,0,1,1.16.95v-.3a.89.89,0,0,1,.89-.89h1.06a.85.85,0,0,1,.62.26.86.86,0,0,1,.27.63v7A2.59,2.59,0,0,0,29.83,27a1.8,1.8,0,0,0,1.47.62,2,2,0,0,0,1-.21,1.73,1.73,0,0,0,.61-.56,3,3,0,0,0,.35-.74,3,3,0,0,0,.11-.76c0-.27,0-.78.07-1.54a19.83,19.83,0,0,0-.1-2.49,8.15,8.15,0,0,0-2.82-5.91,10.74,10.74,0,0,0-6.78-1.91,10.74,10.74,0,0,0-3.2.48,8.38,8.38,0,0,0-2.78,1.45,7.94,7.94,0,0,0-2,2.45,9.05,9.05,0,0,0-1,3.45q0,.43-.06,1.14c0,.48,0,1,0,1.49s0,1,0,1.5a11,11,0,0,0,.08,1.19,8.9,8.9,0,0,0,1,3.41,8,8,0,0,0,2,2.43A8.38,8.38,0,0,0,20.51,34a10.74,10.74,0,0,0,3.2.48A19.28,19.28,0,0,0,26,34.34,11,11,0,0,0,27.77,34a7.39,7.39,0,0,0,1.37-.55,13.42,13.42,0,0,0,1.2-.77l.58-.37a1.06,1.06,0,0,1,.58-.14H33a1,1,0,0,1,.64.25.78.78,0,0,1,.25.68.7.7,0,0,1-.23.49A13.65,13.65,0,0,1,32,34.94a10.41,10.41,0,0,1-2.1,1.12,14.21,14.21,0,0,1-2.72.76,19.16,19.16,0,0,1-3.48.28,13.57,13.57,0,0,1-4.29-.67,11.57,11.57,0,0,1-3.67-2,10.52,10.52,0,0,1-3.86-7.58c0-.31,0-.72-.05-1.24s0-1.05,0-1.61,0-1.09,0-1.6,0-.9.05-1.19a10.63,10.63,0,0,1,3.81-7.58,11.84,11.84,0,0,1,3.68-2,13.42,13.42,0,0,1,4.33-.71,16.88,16.88,0,0,1,5,.69,11.36,11.36,0,0,1,3.82,2A9.07,9.07,0,0,1,35,16.81a12.06,12.06,0,0,1,1.07,4.4c0,.44,0,.89,0,1.35s0,.89,0,1.29,0,.74,0,1S36.11,25.43,36.11,25.56ZM20.64,23.93a6.83,6.83,0,0,0,.15,1.41,4.42,4.42,0,0,0,.49,1.3,3,3,0,0,0,.89,1,2.31,2.31,0,0,0,1.37.38,2.42,2.42,0,0,0,2.33-1.09,6,6,0,0,0,.61-3,10.36,10.36,0,0,0-.13-1.66A3.53,3.53,0,0,0,25.87,21a2.37,2.37,0,0,0-.91-.84,3,3,0,0,0-1.42-.3,2.38,2.38,0,0,0-1.37.38,3.07,3.07,0,0,0-.89,1,4.44,4.44,0,0,0-.49,1.32A7.07,7.07,0,0,0,20.64,23.93Z"/></g></g></svg>