<svg xmlns="http://www.w3.org/2000/svg" viewBox="0 0 48 48"><defs><style>.cls-1{fill:#221e1b;}.cls-2{fill:#fff;}</style></defs><title>Dribbble</title><g id="Layer_2" data-name="Layer 2"><g id="Layer_1-2" data-name="Layer 1"><circle class="cls-1" cx="24" cy="24" r="24"/><path class="cls-2" d="M24,10.76A13.24,13.24,0,1,0,37.24,24,13.24,13.24,0,0,0,24,10.76Zm8.74,6.11a11.23,11.23,0,0,1,2.56,7,26.94,26.94,0,0,0-7.87-.36c-.09-.19-.16-.39-.24-.59-.23-.54-.49-1.1-.75-1.63A15.22,15.22,0,0,0,32.74,16.87ZM24,12.72a11.24,11.24,0,0,1,7.49,2.84,12.8,12.8,0,0,1-5.93,4.08A59.29,59.29,0,0,0,21.34,13,11.6,11.6,0,0,1,24,12.72Zm-4.81,1.06a71.34,71.34,0,0,1,4.19,6.53,42.27,42.27,0,0,1-10.45,1.38A11.35,11.35,0,0,1,19.19,13.78ZM12.69,24v-.34A41.25,41.25,0,0,0,24.3,22.06c.33.63.63,1.28.92,1.93l-.44.12a18,18,0,0,0-9.19,7.46A11.28,11.28,0,0,1,12.69,24ZM24,35.31a11.24,11.24,0,0,1-6.93-2.38c.2-.42,2.49-4.84,8.87-7.06l.07,0a46.79,46.79,0,0,1,2.41,8.57A11.09,11.09,0,0,1,24,35.31Zm6.3-1.94a48.64,48.64,0,0,0-2.19-8,16.48,16.48,0,0,1,7,.49A11.2,11.2,0,0,1,30.3,33.37Z"/></g></g></svg>