<svg xmlns="http://www.w3.org/2000/svg" viewBox="0 0 48 48"><defs><style>.cls-1{fill:#221e1b;fill-rule:evenodd;}</style></defs><title>GIT</title><g id="Layer_2" data-name="Layer 2"><g id="Layer_1-2" data-name="Layer 1"><path class="cls-1" d="M24,0C10.75,0,0,11,0,24.61A24.58,24.58,0,0,0,16.41,48c1.2.22,1.64-.54,1.64-1.19s0-2.13,0-4.18c-6.68,1.48-8.09-3.3-8.09-3.3-1.09-2.85-2.66-3.6-2.66-3.6-2.18-1.53.17-1.5.17-1.5a5.08,5.08,0,0,1,3.67,2.54c2.14,3.76,5.62,2.67,7,2a5.26,5.26,0,0,1,1.52-3.29c-5.33-.62-10.93-2.73-10.93-12.16a9.61,9.61,0,0,1,2.47-6.6,9.06,9.06,0,0,1,.23-6.51s2-.67,6.6,2.52a22.17,22.17,0,0,1,12,0c4.58-3.19,6.59-2.52,6.59-2.52a9,9,0,0,1,.24,6.51,9.61,9.61,0,0,1,2.47,6.6c0,9.45-5.61,11.53-11,12.14A6,6,0,0,1,30,40c0,3.29,0,5.94,0,6.75,0,.66.43,1.43,1.65,1.18A24.56,24.56,0,0,0,48,24.61C48,11,37.25,0,24,0Z"/></g></g></svg>