<svg xmlns="http://www.w3.org/2000/svg" viewBox="0 0 48 48"><defs><style>.cls-1{fill:#221e1b;}.cls-2{fill:#fff;}</style></defs><title>Linkedin</title><g id="Layer_2" data-name="Layer 2"><g id="Layer_1-2" data-name="Layer 1"><circle class="cls-1" cx="24" cy="24" r="24"/><path class="cls-2" d="M14.87,13.92a.94.94,0,0,1-.3.7,1,1,0,0,1-.71.3H11.74a1,1,0,0,1-1-1V11.8a1,1,0,0,1,.29-.71,1,1,0,0,1,.71-.3h2.12a1,1,0,0,1,.71.3,1,1,0,0,1,.3.71ZM14.49,36.2a1,1,0,0,1-.29.71,1,1,0,0,1-.71.3H12.11a.94.94,0,0,1-.7-.3,1,1,0,0,1-.3-.71V18.87a1,1,0,0,1,.3-.71.94.94,0,0,1,.7-.3h1.38a1,1,0,0,1,.71.3,1,1,0,0,1,.29.71Z"/><path class="cls-2" d="M37.26,36.2a1,1,0,0,1-.29.71,1,1,0,0,1-.71.3H34.88a.94.94,0,0,1-.7-.3,1,1,0,0,1-.3-.71V26.38A5.92,5.92,0,0,0,32.5,22.1a5.1,5.1,0,0,0-3.83-1.41,5.17,5.17,0,0,0-3.78,1.41,5.8,5.8,0,0,0-1.43,4.28V36.2a1,1,0,0,1-1,1H21.08a1,1,0,0,1-.71-.3,1,1,0,0,1-.3-.71V18.87a1,1,0,0,1,.3-.71,1,1,0,0,1,.71-.3h1.38a1,1,0,0,1,1,1V20a6.84,6.84,0,0,1,2.1-1.73,7.37,7.37,0,0,1,3.67-.8,8.75,8.75,0,0,1,3.23.58A7.16,7.16,0,0,1,35,19.7a7.34,7.34,0,0,1,1.66,2.63,9.86,9.86,0,0,1,.59,3.49Z"/></g></g></svg>